<svg width="35" height="36" viewBox="0 0 35 36" fill="none" xmlns="http://www.w3.org/2000/svg">
<path d="M21.7124 4.78845V12.7785" stroke="#472B0D" stroke-width="2" stroke-linecap="round"/>
<path d="M15.8589 1.19285C17.5576 0.758449 18.4255 1.11257 20.0989 1.71212" stroke="#472B0D" stroke-width="2" stroke-linecap="round"/>
<path d="M15.4087 10.5811C15.6586 10.3089 16.0948 4.27455 15.7839 1.23279" stroke="#472B0D" stroke-width="2" stroke-linecap="round"/>
<path d="M8.72998 15.3351C11.9296 14.6731 13.4289 13.7516 15.2964 10.8607" stroke="#472B0D" stroke-width="2" stroke-linecap="round"/>
<path d="M8.46729 16.5338V32.1942" stroke="#472B0D" stroke-width="2" stroke-linecap="round"/>
<path d="M1 16.2141V32.5537" stroke="#472B0D" stroke-width="2" stroke-linecap="round"/>
<path d="M7.604 14.8155C8.02327 14.5357 8.44945 15.3374 8.50454 16.4934" stroke="#472B0D" stroke-width="2" stroke-linecap="round"/>
<path d="M1.78809 14.8318C1.36882 14.5521 1.13025 15.4575 1.07516 16.6136" stroke="#472B0D" stroke-width="2" stroke-linecap="round"/>
<path d="M2.01367 14.736H7.56698" stroke="#472B0D" stroke-width="2" stroke-linecap="round"/>
<path d="M7.604 33.7285C8.02327 34.0082 8.44945 33.2066 8.50454 32.0506" stroke="#472B0D" stroke-width="2" stroke-linecap="round"/>
<path d="M1.78809 33.7121C1.36882 33.9919 1.13025 32.7908 1.07516 31.6347" stroke="#472B0D" stroke-width="2" stroke-linecap="round"/>
<path d="M2.01367 33.8083H7.56698" stroke="#472B0D" stroke-width="2" stroke-linecap="round"/>
<path d="M20.3242 1.91199C21.2952 2.53284 21.3882 3.28691 21.7125 4.70849" stroke="#472B0D" stroke-width="2" stroke-linecap="round"/>
<path d="M21.8252 12.8978C22.7858 12.7388 28.0664 12.8713 30.8681 12.9375" stroke="#472B0D" stroke-width="2" stroke-linecap="round"/>
<path d="M31.0186 12.9781C33.0505 13.8163 33.6708 14.8308 33.9828 16.9332" stroke="#472B0D" stroke-width="2" stroke-linecap="round"/>
<path d="M33.9447 17.0131L31.9561 31.7147" stroke="#472B0D" stroke-width="2" stroke-linecap="round"/>
<path d="M27.9033 34.7908C29.1796 34.9276 31.954 32.7779 31.9557 31.5548" stroke="#472B0D" stroke-width="2" stroke-linecap="round"/>
<path d="M12.2944 34.7896C12.5946 34.7595 22.9508 34.777 28.0913 34.7896" stroke="#472B0D" stroke-width="2" stroke-linecap="round"/>
<path d="M8.84229 32.3141C9.7323 34.0797 10.5468 34.4306 12.2193 34.751" stroke="#472B0D" stroke-width="2" stroke-linecap="round"/>
</svg>
