<svg width="451" height="509" viewBox="0 0 451 509" fill="none" xmlns="http://www.w3.org/2000/svg">
<path fill-rule="evenodd" clip-rule="evenodd" d="M8.06798 3.74816C8.06798 5.81821 6.2619 7.49632 4.03399 7.49632C1.80608 7.49632 0 5.81821 0 3.74816C0 1.67811 1.80608 0 4.03399 0C6.2619 0 8.06798 1.67811 8.06798 3.74816ZM48.4079 3.74816C48.4079 5.81821 46.6018 7.49632 44.3739 7.49632C42.146 7.49632 40.3399 5.81821 40.3399 3.74816C40.3399 1.67811 42.146 0 44.3739 0C46.6018 0 48.4079 1.67811 48.4079 3.74816ZM84.7138 7.49632C86.9417 7.49632 88.7478 5.81821 88.7478 3.74816C88.7478 1.67811 86.9417 0 84.7138 0C82.4859 0 80.6798 1.67811 80.6798 3.74816C80.6798 5.81821 82.4859 7.49632 84.7138 7.49632ZM129.088 3.74816C129.088 5.81821 127.282 7.49632 125.054 7.49632C122.826 7.49632 121.02 5.81821 121.02 3.74816C121.02 1.67811 122.826 0 125.054 0C127.282 0 129.088 1.67811 129.088 3.74816ZM165.394 7.49632C167.621 7.49632 169.428 5.81821 169.428 3.74816C169.428 1.67811 167.621 0 165.394 0C163.166 0 161.36 1.67811 161.36 3.74816C161.36 5.81821 163.166 7.49632 165.394 7.49632ZM209.767 3.74816C209.767 5.81821 207.961 7.49632 205.733 7.49632C203.506 7.49632 201.699 5.81821 201.699 3.74816C201.699 1.67811 203.506 0 205.733 0C207.961 0 209.767 1.67811 209.767 3.74816ZM4.03399 44.9779C6.2619 44.9779 8.06798 43.2998 8.06798 41.2298C8.06798 39.1597 6.2619 37.4816 4.03399 37.4816C1.80608 37.4816 0 39.1597 0 41.2298C0 43.2998 1.80608 44.9779 4.03399 44.9779ZM48.4079 41.2298C48.4079 43.2998 46.6018 44.9779 44.3739 44.9779C42.146 44.9779 40.3399 43.2998 40.3399 41.2298C40.3399 39.1597 42.146 37.4816 44.3739 37.4816C46.6018 37.4816 48.4079 39.1597 48.4079 41.2298ZM84.7138 44.9779C86.9417 44.9779 88.7478 43.2998 88.7478 41.2298C88.7478 39.1597 86.9417 37.4816 84.7138 37.4816C82.4859 37.4816 80.6798 39.1597 80.6798 41.2298C80.6798 43.2998 82.4859 44.9779 84.7138 44.9779ZM129.088 41.2298C129.088 43.2998 127.282 44.9779 125.054 44.9779C122.826 44.9779 121.02 43.2998 121.02 41.2298C121.02 39.1597 122.826 37.4816 125.054 37.4816C127.282 37.4816 129.088 39.1597 129.088 41.2298ZM165.394 44.9779C167.621 44.9779 169.428 43.2998 169.428 41.2298C169.428 39.1597 167.621 37.4816 165.394 37.4816C163.166 37.4816 161.36 39.1597 161.36 41.2298C161.36 43.2998 163.166 44.9779 165.394 44.9779ZM209.767 41.2298C209.767 43.2998 207.961 44.9779 205.733 44.9779C203.506 44.9779 201.699 43.2998 201.699 41.2298C201.699 39.1597 203.506 37.4816 205.733 37.4816C207.961 37.4816 209.767 39.1597 209.767 41.2298Z" fill="#E1D9CC"/>
<path fill-rule="evenodd" clip-rule="evenodd" d="M249.301 3.74816C249.301 5.81821 247.495 7.49632 245.267 7.49632C243.039 7.49632 241.233 5.81821 241.233 3.74816C241.233 1.67811 243.039 0 245.267 0C247.495 0 249.301 1.67811 249.301 3.74816ZM289.641 3.74816C289.641 5.81821 287.834 7.49632 285.607 7.49632C283.379 7.49632 281.573 5.81821 281.573 3.74816C281.573 1.67811 283.379 0 285.607 0C287.834 0 289.641 1.67811 289.641 3.74816ZM325.946 7.49632C328.174 7.49632 329.98 5.81821 329.98 3.74816C329.98 1.67811 328.174 0 325.946 0C323.719 0 321.912 1.67811 321.912 3.74816C321.912 5.81821 323.719 7.49632 325.946 7.49632ZM370.32 3.74816C370.32 5.81821 368.514 7.49632 366.286 7.49632C364.058 7.49632 362.252 5.81821 362.252 3.74816C362.252 1.67811 364.058 0 366.286 0C368.514 0 370.32 1.67811 370.32 3.74816ZM406.626 7.49632C408.854 7.49632 410.66 5.81821 410.66 3.74816C410.66 1.67811 408.854 0 406.626 0C404.398 0 402.592 1.67811 402.592 3.74816C402.592 5.81821 404.398 7.49632 406.626 7.49632ZM451 3.74816C451 5.81821 449.194 7.49632 446.966 7.49632C444.738 7.49632 442.932 5.81821 442.932 3.74816C442.932 1.67811 444.738 0 446.966 0C449.194 0 451 1.67811 451 3.74816ZM245.267 44.9779C247.495 44.9779 249.301 43.2998 249.301 41.2298C249.301 39.1597 247.495 37.4816 245.267 37.4816C243.039 37.4816 241.233 39.1597 241.233 41.2298C241.233 43.2998 243.039 44.9779 245.267 44.9779ZM289.641 41.2298C289.641 43.2998 287.834 44.9779 285.607 44.9779C283.379 44.9779 281.573 43.2998 281.573 41.2298C281.573 39.1597 283.379 37.4816 285.607 37.4816C287.834 37.4816 289.641 39.1597 289.641 41.2298ZM325.946 44.9779C328.174 44.9779 329.98 43.2998 329.98 41.2298C329.98 39.1597 328.174 37.4816 325.946 37.4816C323.719 37.4816 321.912 39.1597 321.912 41.2298C321.912 43.2998 323.719 44.9779 325.946 44.9779ZM370.32 41.2298C370.32 43.2998 368.514 44.9779 366.286 44.9779C364.058 44.9779 362.252 43.2998 362.252 41.2298C362.252 39.1597 364.058 37.4816 366.286 37.4816C368.514 37.4816 370.32 39.1597 370.32 41.2298ZM406.626 44.9779C408.854 44.9779 410.66 43.2998 410.66 41.2298C410.66 39.1597 408.854 37.4816 406.626 37.4816C404.398 37.4816 402.592 39.1597 402.592 41.2298C402.592 43.2998 404.398 44.9779 406.626 44.9779ZM451 41.2298C451 43.2998 449.194 44.9779 446.966 44.9779C444.738 44.9779 442.932 43.2998 442.932 41.2298C442.932 39.1597 444.738 37.4816 446.966 37.4816C449.194 37.4816 451 39.1597 451 41.2298Z" fill="#E1D9CC"/>
<path fill-rule="evenodd" clip-rule="evenodd" d="M406.626 501.504C408.854 501.504 410.66 503.182 410.66 505.252C410.66 507.322 408.854 509 406.626 509C404.398 509 402.592 507.322 402.592 505.252C402.592 503.182 404.398 501.504 406.626 501.504ZM406.626 464.022C408.854 464.022 410.66 465.7 410.66 467.77C410.66 469.84 408.854 471.518 406.626 471.518C404.398 471.518 402.592 469.84 402.592 467.77C402.592 465.7 404.398 464.022 406.626 464.022ZM410.66 430.289C410.66 428.219 408.854 426.54 406.626 426.54C404.398 426.54 402.592 428.219 402.592 430.289C402.592 432.359 404.398 434.037 406.626 434.037C408.854 434.037 410.66 432.359 410.66 430.289ZM406.626 389.059C408.854 389.059 410.66 390.737 410.66 392.807C410.66 394.877 408.854 396.555 406.626 396.555C404.398 396.555 402.592 394.877 402.592 392.807C402.592 390.737 404.398 389.059 406.626 389.059ZM410.66 355.325C410.66 353.255 408.854 351.577 406.626 351.577C404.398 351.577 402.592 353.255 402.592 355.325C402.592 357.396 404.398 359.074 406.626 359.074C408.854 359.074 410.66 357.396 410.66 355.325ZM406.626 314.096C408.854 314.096 410.66 315.774 410.66 317.844C410.66 319.914 408.854 321.592 406.626 321.592C404.398 321.592 402.592 319.914 402.592 317.844C402.592 315.774 404.398 314.096 406.626 314.096ZM451 505.252C451 503.182 449.194 501.504 446.966 501.504C444.738 501.504 442.932 503.182 442.932 505.252C442.932 507.322 444.738 509 446.966 509C449.194 509 451 507.322 451 505.252ZM446.966 464.022C449.194 464.022 451 465.7 451 467.77C451 469.84 449.194 471.518 446.966 471.518C444.738 471.518 442.932 469.84 442.932 467.77C442.932 465.7 444.738 464.022 446.966 464.022ZM451 430.289C451 428.219 449.194 426.54 446.966 426.54C444.738 426.54 442.932 428.219 442.932 430.289C442.932 432.359 444.738 434.037 446.966 434.037C449.194 434.037 451 432.359 451 430.289ZM446.966 389.059C449.194 389.059 451 390.737 451 392.807C451 394.877 449.194 396.555 446.966 396.555C444.738 396.555 442.932 394.877 442.932 392.807C442.932 390.737 444.738 389.059 446.966 389.059ZM451 355.325C451 353.255 449.194 351.577 446.966 351.577C444.738 351.577 442.932 353.255 442.932 355.325C442.932 357.396 444.738 359.074 446.966 359.074C449.194 359.074 451 357.396 451 355.325ZM446.966 314.096C449.194 314.096 451 315.774 451 317.844C451 319.914 449.194 321.592 446.966 321.592C444.738 321.592 442.932 319.914 442.932 317.844C442.932 315.774 444.738 314.096 446.966 314.096Z" fill="#E1D9CC"/>
<path fill-rule="evenodd" clip-rule="evenodd" d="M406.626 277.364C408.854 277.364 410.66 279.042 410.66 281.112C410.66 283.182 408.854 284.86 406.626 284.86C404.398 284.86 402.592 283.182 402.592 281.112C402.592 279.042 404.398 277.364 406.626 277.364ZM406.626 239.882C408.854 239.882 410.66 241.56 410.66 243.63C410.66 245.7 408.854 247.379 406.626 247.379C404.398 247.379 402.592 245.7 402.592 243.63C402.592 241.56 404.398 239.882 406.626 239.882ZM410.66 206.149C410.66 204.079 408.854 202.401 406.626 202.401C404.398 202.401 402.592 204.079 402.592 206.149C402.592 208.219 404.398 209.897 406.626 209.897C408.854 209.897 410.66 208.219 410.66 206.149ZM406.626 164.919C408.854 164.919 410.66 166.597 410.66 168.667C410.66 170.737 408.854 172.415 406.626 172.415C404.398 172.415 402.592 170.737 402.592 168.667C402.592 166.597 404.398 164.919 406.626 164.919ZM410.66 131.186C410.66 129.116 408.854 127.437 406.626 127.437C404.398 127.437 402.592 129.116 402.592 131.186C402.592 133.256 404.398 134.934 406.626 134.934C408.854 134.934 410.66 133.256 410.66 131.186ZM406.626 89.9558C408.854 89.9558 410.66 91.634 410.66 93.704C410.66 95.774 408.854 97.4521 406.626 97.4521C404.398 97.4521 402.592 95.774 402.592 93.704C402.592 91.634 404.398 89.9558 406.626 89.9558ZM451 281.112C451 279.042 449.194 277.364 446.966 277.364C444.738 277.364 442.932 279.042 442.932 281.112C442.932 283.182 444.738 284.86 446.966 284.86C449.194 284.86 451 283.182 451 281.112ZM446.966 239.882C449.194 239.882 451 241.56 451 243.63C451 245.7 449.194 247.379 446.966 247.379C444.738 247.379 442.932 245.7 442.932 243.63C442.932 241.56 444.738 239.882 446.966 239.882ZM451 206.149C451 204.079 449.194 202.401 446.966 202.401C444.738 202.401 442.932 204.079 442.932 206.149C442.932 208.219 444.738 209.897 446.966 209.897C449.194 209.897 451 208.219 451 206.149ZM446.966 164.919C449.194 164.919 451 166.597 451 168.667C451 170.737 449.194 172.415 446.966 172.415C444.738 172.415 442.932 170.737 442.932 168.667C442.932 166.597 444.738 164.919 446.966 164.919ZM451 131.186C451 129.116 449.194 127.437 446.966 127.437C444.738 127.437 442.932 129.116 442.932 131.186C442.932 133.256 444.738 134.934 446.966 134.934C449.194 134.934 451 133.256 451 131.186ZM446.966 89.9558C449.194 89.9558 451 91.634 451 93.704C451 95.774 449.194 97.4521 446.966 97.4521C444.738 97.4521 442.932 95.774 442.932 93.704C442.932 91.634 444.738 89.9558 446.966 89.9558Z" fill="#E1D9CC"/>
</svg>
