<svg width="36" height="33" viewBox="0 0 36 33" fill="none" xmlns="http://www.w3.org/2000/svg">
<path d="M7.50439 0.000366211C6.67597 0.000366211 6.00439 0.671939 6.00439 1.50037C6.00439 2.32879 6.67597 3.00037 7.50439 3.00037V1.50037V0.000366211ZM30.7244 1.50037L31.4068 0.164592L31.0854 0.000366211H30.7244V1.50037ZM7.50439 1.50037V3.00037H30.7244V1.50037V0.000366211H7.50439V1.50037ZM30.7244 1.50037L30.042 2.83614C29.9913 2.81023 30.0131 2.80048 30.0763 2.89996C30.1401 3.00018 30.2124 3.15988 30.2752 3.38147C30.4043 3.83616 30.4368 4.34559 30.4159 4.6447L31.9122 4.74921L33.4086 4.85373C33.4519 4.23332 33.3917 3.37438 33.1613 2.56254C32.9496 1.81629 32.4809 0.713323 31.4068 0.164592L30.7244 1.50037Z" fill="#472B0D"/>
<path d="M8.02113 2.90857C8.79885 2.6232 9.19799 1.7614 8.91263 0.983673C8.62727 0.205945 7.76547 -0.193196 6.98774 0.0921661L7.50443 1.50037L8.02113 2.90857ZM6.54649 4.50309L8.04536 4.44483C8.02069 3.8102 8.14848 3.29765 8.28725 2.9596C8.35759 2.78826 8.42234 2.68227 8.45348 2.63859C8.46986 2.61561 8.46339 2.62889 8.42856 2.66271C8.41975 2.67127 8.28057 2.81337 8.02113 2.90857L7.50443 1.50037L6.98774 0.0921661C6.66121 0.211974 6.43969 0.41231 6.33839 0.510695C6.21108 0.634348 6.10198 0.769047 6.01073 0.897045C5.82659 1.15532 5.65601 1.46951 5.512 1.82031C5.22207 2.52656 5.00505 3.46613 5.04762 4.56135L6.54649 4.50309ZM6.20166 25.0299V26.5299H31.4525V25.0299V23.5299H6.20166V25.0299Z" fill="#472B0D"/>
<path d="M6.35466 25.0299C4.38087 25.5312 3.37389 25.9676 1.6418 27.6881C1.33252 30.0463 1.3773 31.0471 3.36604 31.3307" stroke="#472B0D" stroke-width="3" stroke-linecap="round"/>
<path d="M34.1724 28.4757C33.722 26.8133 33.1226 26.0853 31.6435 25.0299M29.2295 31.2323C29.2908 31.2323 32.0394 31.2323 33.406 31.2323" stroke="#472B0D" stroke-width="3" stroke-linecap="round"/>
<path d="M33.4448 31.2324C34.2484 30.447 34.4463 29.88 34.2112 28.5742" stroke="#472B0D" stroke-width="3" stroke-linecap="round"/>
<path d="M2.90576 31.2379C2.99837 31.5945 21.081 31.3865 30.1107 31.2379" stroke="#472B0D" stroke-width="3" stroke-linecap="round"/>
<path d="M31.9126 4.50299L31.6827 25.3744M6.54685 4.20764L6.47021 24.9806" stroke="#472B0D" stroke-width="3"/>
</svg>
