<svg width="14" height="15" viewBox="0 0 14 15" fill="none" xmlns="http://www.w3.org/2000/svg">
<g clip-path="url(#clip0_8_2)">
<path d="M11.0833 1.875H8.645C8.4 1.15 7.75833 0.625 7 0.625C6.24167 0.625 5.6 1.15 5.355 1.875H2.91667C2.275 1.875 1.75 2.4375 1.75 3.125V11.875C1.75 12.5625 2.275 13.125 2.91667 13.125H11.0833C11.725 13.125 12.25 12.5625 12.25 11.875V3.125C12.25 2.4375 11.725 1.875 11.0833 1.875ZM7 1.875C7.32083 1.875 7.58333 2.15625 7.58333 2.5C7.58333 2.84375 7.32083 3.125 7 3.125C6.67917 3.125 6.41667 2.84375 6.41667 2.5C6.41667 2.15625 6.67917 1.875 7 1.875ZM8.16667 10.625H4.08333V9.375H8.16667V10.625ZM9.91667 8.125H4.08333V6.875H9.91667V8.125ZM9.91667 5.625H4.08333V4.375H9.91667V5.625Z" fill="white"/>
</g>
<defs>
<clipPath id="clip0_8_2">
<rect width="14" height="15" fill="white"/>
</clipPath>
</defs>
</svg>
