<svg width="65" height="65" viewBox="0 0 65 65" fill="none" xmlns="http://www.w3.org/2000/svg">
<path d="M32.5585 0.243652C14.6449 0.243652 0.118713 15.0148 0.118713 33.2373C0.118713 47.815 9.41371 60.1827 22.3031 64.5454C23.9243 64.8508 24.5195 63.8297 24.5195 62.9582C24.5195 62.1714 24.4894 59.5724 24.4754 56.8154C15.4507 58.8113 13.5463 52.9225 13.5463 52.9225C12.0707 49.1088 9.94446 48.0948 9.94446 48.0948C7.00119 46.047 10.1663 46.089 10.1663 46.089C13.4238 46.3212 15.1391 49.4891 15.1391 49.4891C18.0324 54.5332 22.728 53.0749 24.5791 52.2319C24.8703 50.0999 25.711 48.6433 26.6387 47.8199C19.4334 46.9856 11.859 44.1565 11.859 31.5141C11.859 27.9118 13.1262 24.9685 15.2014 22.6579C14.8646 21.8264 13.7542 18.4711 15.5157 13.9264C15.5157 13.9264 18.2397 13.0396 24.4389 17.3084C27.0266 16.5774 29.8017 16.2108 32.5585 16.1982C35.3154 16.2108 38.0927 16.5774 40.6852 17.3084C46.8768 13.0396 49.5971 13.9264 49.5971 13.9264C51.3629 18.4711 50.252 21.8264 49.9152 22.6579C51.9952 24.9685 53.2538 27.9118 53.2538 31.5141C53.2538 44.1866 45.6649 46.9769 38.4413 47.7937C39.6049 48.8176 40.6416 50.8255 40.6416 53.9038C40.6416 58.3179 40.604 61.8709 40.604 62.9582C40.604 63.8362 41.188 64.865 42.8323 64.541C55.7147 60.1734 64.9978 47.8101 64.9978 33.2373C64.9978 15.0148 50.4738 0.243652 32.5585 0.243652Z" fill="white"/>
<path d="M12.4053 47.6155C12.3339 47.78 12.0803 47.8286 11.8493 47.7161C11.6141 47.6084 11.4819 47.385 11.5582 47.2205C11.628 47.0517 11.8821 47.0052 12.1169 47.1172C12.3527 47.2254 12.487 47.4511 12.4053 47.6155Z" fill="white"/>
<path d="M13.7193 49.1063C13.5646 49.2522 13.2621 49.1844 13.0569 48.9538C12.8447 48.7238 12.805 48.4162 12.9618 48.2681C13.1214 48.1223 13.4147 48.1906 13.6274 48.4206C13.8396 48.6533 13.881 48.9588 13.7193 49.1063Z" fill="white"/>
<path d="M14.9983 51.0065C14.7996 51.1469 14.4746 51.0153 14.2737 50.7219C14.0749 50.4285 14.0749 50.0766 14.278 49.9356C14.4794 49.7947 14.7996 49.9214 15.0032 50.2126C15.2014 50.5104 15.2014 50.8628 14.9983 51.0065Z" fill="white"/>
<path d="M16.7506 52.8424C16.5728 53.0418 16.1941 52.9883 15.9169 52.7162C15.6333 52.4501 15.5543 52.0725 15.7327 51.8731C15.9126 51.6732 16.2935 51.7294 16.5728 51.9993C16.8543 52.2649 16.9403 52.6451 16.7506 52.8424Z" fill="white"/>
<path d="M19.168 53.9081C19.0896 54.1666 18.7248 54.284 18.3574 54.1742C17.9905 54.0611 17.7503 53.7584 17.8245 53.4973C17.9008 53.2372 18.2671 53.1148 18.6372 53.2323C19.0036 53.3448 19.2443 53.6453 19.168 53.9081Z" fill="white"/>
<path d="M21.8228 54.1061C21.8319 54.3782 21.5203 54.6038 21.1346 54.6082C20.7468 54.6175 20.4331 54.3973 20.4288 54.1296C20.4288 53.8547 20.7334 53.6313 21.1212 53.6247C21.5069 53.6171 21.8228 53.8356 21.8228 54.1061Z" fill="white"/>
<path d="M24.2933 53.678C24.3395 53.9436 24.0715 54.2162 23.6884 54.2883C23.3119 54.3588 22.9632 54.1949 22.9154 53.9316C22.8687 53.6595 23.1416 53.3868 23.5176 53.3163C23.9012 53.2486 24.2444 53.4081 24.2933 53.678Z" fill="white"/>
</svg>
