<svg width="26" height="23" viewBox="0 0 26 23" fill="none" xmlns="http://www.w3.org/2000/svg">
<path d="M12.9512 3.63857C18.8679 -2.70061 27.5389 1.14614 24.1598 9.98615" stroke="#EA6666" stroke-linecap="round"/>
<path d="M12.8862 3.76212C6.96945 -2.57706 -2.14891 1.15088 1.23027 9.99089" stroke="#EA6666" stroke-linecap="round"/>
<path d="M24.1091 10.061C21.0201 15.5958 18.589 18.2475 12.8428 22.0677" stroke="#EA6666" stroke-linecap="round"/>
<path d="M1.17947 9.99268C4.26843 15.5275 6.69953 18.1792 12.4458 21.9994" stroke="#EA6666" stroke-linecap="round"/>
<path d="M6.60742 1.06982C10.186 1.06982 13.4373 3.74888 13.4375 6.9126C13.4375 10.1762 10.8368 13.0864 7.36426 13.0864C3.82609 13.0862 0.835938 10.3295 0.835938 7.13037C0.836119 3.84597 3.15461 1.06983 6.60742 1.06982Z" fill="#EA6666" stroke="#EA6666"/>
<path d="M18.8242 1.00098C22.1681 1.0011 24.4316 3.43863 24.4316 6.69531C24.4315 10.0048 22.1802 12.8252 18.8848 12.8252C15.5096 12.8252 12.802 10.1823 12.8018 6.95703C12.8018 3.71682 15.4639 1.00098 18.8242 1.00098Z" fill="#EA6666" stroke="#EA6666"/>
<path d="M22.1479 12.4658L18.5415 17.3154L12.7192 21.4512L7.04248 17.3115L4.56787 14.1953L3.10596 12.1016L13.0708 9.09375L22.1479 12.4658Z" fill="#EA6666" stroke="#EA6666"/>
</svg>
