<svg width="35" height="39" viewBox="0 0 35 39" fill="none" xmlns="http://www.w3.org/2000/svg">
<path d="M18.6631 37.1353C20.7286 36.5004 19.749 32.1027 19.1965 32.4924" stroke="#472B0D" stroke-width="2" stroke-linecap="round"/>
<path d="M9.47656 29.3612C9.85596 34.6943 9.55337 36.1622 12.6473 37.2433" stroke="#472B0D" stroke-width="2" stroke-linecap="round"/>
<path d="M12.647 37.2433C14.916 37.8337 16.1988 37.8547 18.5142 37.2433M15.5213 32.1685C16.94 31.4974 17.8837 31.8021 19.1958 32.4564" stroke="#472B0D" stroke-width="2" stroke-linecap="round"/>
<path d="M13.2861 24.981L12.289 24.9053L12.1376 26.8996L13.1348 26.9753L13.2104 25.9781L13.2861 24.981ZM29.2549 28.199C29.8056 28.2408 30.2859 27.8282 30.3277 27.2775C30.3695 26.7268 29.957 26.2465 29.4063 26.2047L29.3306 27.2019L29.2549 28.199ZM13.2104 25.9781L13.1348 26.9753L29.2549 28.199L29.3306 27.2019L29.4063 26.2047L13.2861 24.981L13.2104 25.9781Z" fill="#472B0D"/>
<path d="M12.9138 26.6258L12.7656 11.1495" stroke="#472B0D" stroke-width="2" stroke-linecap="round"/>
<path d="M7.72803 29.5411C8.24962 29.8633 12.0825 27.4574 13.5064 26.0499" stroke="#472B0D" stroke-width="2" stroke-linecap="round"/>
<path d="M7.75794 29.5051C-0.794813 30.6919 -1.69916 18.2065 7.75798 15.1086L23.2262 1" stroke="#472B0D" stroke-width="2" stroke-linecap="round"/>
<path d="M23.2559 1.0719C28.7592 9.51842 28.9496 16.3131 29.3898 27.0936" stroke="#472B0D" stroke-width="2" stroke-linecap="round"/>
<path d="M27.8784 9.70985C37.3283 9.41145 33.7093 16.2003 29.7453 18.9956" stroke="#472B0D" stroke-width="2" stroke-linecap="round"/>
<path d="M15.5811 26.3739V31.5566" stroke="#472B0D" stroke-width="2" stroke-linecap="square"/>
</svg>
