<svg width="15" height="14" viewBox="0 0 15 14" fill="none" xmlns="http://www.w3.org/2000/svg">
<g clip-path="url(#clip0_9_9)">
<path d="M7.5 1.16669C4.05 1.16669 1.25 3.78002 1.25 7.00002C1.25 10.22 4.05 12.8334 7.5 12.8334C10.95 12.8334 13.75 10.22 13.75 7.00002C13.75 3.78002 10.95 1.16669 7.5 1.16669ZM8.38125 10.5525V11.6667H6.7125V10.5409C5.64375 10.3309 4.7375 9.68919 4.66875 8.55752H5.89375C5.95625 9.17002 6.40625 9.64835 7.55 9.64835C8.775 9.64835 9.05 9.07669 9.05 8.72085C9.05 8.23669 8.775 7.78169 7.38125 7.47252C5.83125 7.12252 4.76875 6.52752 4.76875 5.33169C4.76875 4.32835 5.6375 3.67502 6.7125 3.45919V2.33335H8.38125V3.47085C9.54375 3.73335 10.125 4.55585 10.1625 5.44835H8.9375C8.90625 4.80085 8.5375 4.35752 7.55 4.35752C6.6125 4.35752 6.05 4.75419 6.05 5.31419C6.05 5.80419 6.45625 6.12502 7.71875 6.42835C8.98125 6.73169 10.3313 7.23919 10.3313 8.70919C10.325 9.77669 9.46875 10.36 8.38125 10.5525Z" fill="white"/>
</g>
<defs>
<clipPath id="clip0_9_9">
<rect width="15" height="14" fill="white"/>
</clipPath>
</defs>
</svg>
