<svg width="38" height="31" viewBox="0 0 38 31" fill="none" xmlns="http://www.w3.org/2000/svg">
<path d="M15.1836 1.5L24.5984 1.67494" stroke="#472B0D" stroke-width="3" stroke-linecap="round"/>
<path d="M12.1814 5.48189C12.0141 2.43928 12.7212 1.58417 15.332 1.5" stroke="#472B0D" stroke-width="3" stroke-linecap="round"/>
<path d="M27.4587 5.86615C27.6267 2.6634 26.9165 1.76328 24.2943 1.67468" stroke="#472B0D" stroke-width="3" stroke-linecap="round"/>
<path d="M36.3481 8.03186L36.2739 27.2078" stroke="#472B0D" stroke-width="3" stroke-linecap="round"/>
<path d="M33.939 6.04075C35.9792 5.87878 36.3618 6.71997 36.3853 8.76522" stroke="#472B0D" stroke-width="3" stroke-linecap="round"/>
<path d="M27.4893 6.04019C27.5486 6.01339 31.8136 6.02902 33.9387 6.04019" stroke="#472B0D" stroke-width="3" stroke-linecap="round"/>
<path d="M33.9756 29.4781C35.9225 29.6412 36.3602 29.0499 36.2366 26.6139" stroke="#472B0D" stroke-width="3" stroke-linecap="round"/>
<path d="M2.58105 29.4082L33.976 29.4781" stroke="#472B0D" stroke-width="3" stroke-linecap="round"/>
<path d="M1.50586 8.80029L1.54295 27.2078" stroke="#472B0D" stroke-width="3" stroke-linecap="round"/>
<path d="M1.50622 8.76529C1.39115 8.55023 2.89819 6.46311 3.95237 5.65662" stroke="#472B0D" stroke-width="3" stroke-linecap="round"/>
<path d="M3.95215 5.65633C4.36729 5.71194 9.58619 5.64475 12.1437 5.62158" stroke="#472B0D" stroke-width="3" stroke-linecap="round"/>
<path d="M1.54321 27.2078C1.51017 28.9634 1.8335 29.5908 3.6556 29.4083" stroke="#472B0D" stroke-width="3" stroke-linecap="round"/>
<path d="M18.8525 10.3003C23.0645 10.3003 26.2119 13.3506 26.2119 16.7993C26.2117 20.2479 23.0644 23.2974 18.8525 23.2974C14.6409 23.2972 11.4943 20.2478 11.4941 16.7993C11.4941 13.3507 14.6408 10.3005 18.8525 10.3003Z" stroke="#472B0D" stroke-width="3"/>
</svg>
