<svg width="69" height="65" viewBox="0 0 69 65" fill="none" xmlns="http://www.w3.org/2000/svg">
<path d="M4.60156 55.7475C5.94645 54.7008 15.7289 44.7964 20.452 39.975L30.6987 48.7698L49.271 30.2354L65.0413 43.9726" stroke="black" stroke-width="5" stroke-linecap="round"/>
<path d="M11.6465 61.6348L56.9563 61.7801" stroke="black" stroke-width="5" stroke-linecap="round"/>
<path d="M66.4023 14.3896V48.6965" stroke="black" stroke-width="5" stroke-linecap="round"/>
<path d="M13.5679 2.61523L53.9945 2.61523" stroke="black" stroke-width="5" stroke-linecap="round"/>
<path d="M2.52051 13.8076V48.1145" stroke="black" stroke-width="5" stroke-linecap="round"/>
<path d="M2.6807 18.3873C1.13401 10.7268 9.9091 0.342184 17.01 2.90503M2.6807 18.3873C1.13401 10.7268 9.9091 0.342184 17.01 2.90503" stroke="black" stroke-width="5" stroke-linecap="round"/>
<path d="M66.3223 18.4951C67.4362 12.2668 59.5878 1.85794 53.0337 2.61424" stroke="black" stroke-width="5" stroke-linecap="round"/>
<path d="M66.3222 46.516C67.8689 54.1765 59.0938 64.5611 51.9929 61.9983M66.3222 46.516C67.8689 54.1765 59.0938 64.5611 51.9929 61.9983" stroke="black" stroke-width="5" stroke-linecap="round"/>
<path d="M2.69974 46.516C1.15306 54.1765 9.92815 64.5611 17.0291 61.9983M2.69974 46.516C1.15306 54.1765 9.92815 64.5611 17.0291 61.9983" stroke="black" stroke-width="5" stroke-linecap="round"/>
<mask id="path-10-inside-1_114_454" fill="white">
<ellipse cx="23.8142" cy="20.2042" rx="5.44358" ry="4.94252"/>
</mask>
<ellipse cx="23.8142" cy="20.2042" rx="5.44358" ry="4.94252" fill="black"/>
<path d="M29.2578 20.2042H24.2578C24.2578 20.1322 24.2758 20.0636 24.2976 20.0167C24.3169 19.9753 24.3277 19.9743 24.3023 19.9973C24.2475 20.0471 24.0885 20.1468 23.8142 20.1468V25.1468V30.1468C29.1167 30.1468 34.2578 26.1387 34.2578 20.2042H29.2578ZM23.8142 25.1468V20.1468C23.5399 20.1468 23.3809 20.0471 23.3261 19.9973C23.3007 19.9743 23.3114 19.9753 23.3307 20.0167C23.3526 20.0636 23.3706 20.1322 23.3706 20.2042H18.3706H13.3706C13.3706 26.1387 18.5116 30.1468 23.8142 30.1468V25.1468ZM18.3706 20.2042H23.3706C23.3706 20.2763 23.3526 20.3449 23.3307 20.3917C23.3114 20.4332 23.3007 20.4341 23.3261 20.4111C23.3809 20.3614 23.5399 20.2617 23.8142 20.2617V15.2617V10.2617C18.5116 10.2617 13.3706 14.2698 13.3706 20.2042H18.3706ZM23.8142 15.2617V20.2617C24.0885 20.2617 24.2475 20.3614 24.3023 20.4111C24.3277 20.4341 24.3169 20.4332 24.2976 20.3917C24.2758 20.3449 24.2578 20.2763 24.2578 20.2042H29.2578H34.2578C34.2578 14.2698 29.1167 10.2617 23.8142 10.2617V15.2617Z" fill="black" mask="url(#path-10-inside-1_114_454)"/>
</svg>
