<svg width="29" height="27" viewBox="0 0 29 27" fill="none" xmlns="http://www.w3.org/2000/svg">
<g opacity="0.66" clip-path="url(#clip0_5_31)">
<path d="M18.7292 15.75H17.7746L17.4363 15.4463C18.6204 14.1638 19.3333 12.4988 19.3333 10.6875C19.3333 6.64875 15.8171 3.375 11.4792 3.375C7.14125 3.375 3.625 6.64875 3.625 10.6875C3.625 14.7263 7.14125 18 11.4792 18C13.4246 18 15.2129 17.3363 16.5904 16.2338L16.9167 16.5488V17.4375L22.9583 23.0513L24.7588 21.375L18.7292 15.75ZM11.4792 15.75C8.47042 15.75 6.04167 13.4888 6.04167 10.6875C6.04167 7.88625 8.47042 5.625 11.4792 5.625C14.4879 5.625 16.9167 7.88625 16.9167 10.6875C16.9167 13.4888 14.4879 15.75 11.4792 15.75Z" fill="#444E5A"/>
</g>
<defs>
<clipPath id="clip0_5_31">
<rect width="29" height="27" fill="white"/>
</clipPath>
</defs>
</svg>
