<svg width="34" height="37" viewBox="0 0 34 37" fill="none" xmlns="http://www.w3.org/2000/svg">
<path d="M13.1548 18.2802C13.362 18.1116 17.678 12.4853 19.836 9.58789" stroke="#472B0D" stroke-width="3" stroke-linecap="round"/>
<path d="M29.1587 34.5061C31.1986 35.4083 32.7787 33.7947 32.0591 31.8193" stroke="#472B0D" stroke-width="3" stroke-linecap="round"/>
<path d="M25.0017 21.7105L23.954 20.637L21.8071 22.7324L22.8547 23.8059L23.9282 22.7582L25.0017 21.7105ZM30.8756 32.6978C31.419 33.3231 32.3664 33.3895 32.9917 32.8461C33.6171 32.3028 33.6835 31.3553 33.1401 30.73L32.0078 31.7139L30.8756 32.6978ZM23.9282 22.7582L22.8547 23.8059C25.7633 26.786 27.6043 28.9332 30.8756 32.6978L32.0078 31.7139L33.1401 30.73C29.8811 26.9796 27.9819 24.7641 25.0017 21.7105L23.9282 22.7582Z" fill="#472B0D"/>
<path d="M13.8506 1.5C21.3653 1.50016 26.4678 7.24331 26.4678 14.0244C26.4678 20.7122 21.4588 25.8934 13.8506 25.8936C10.0138 25.8936 6.94349 24.5728 4.83691 22.4814C2.7276 20.3873 1.5 17.4379 1.5 14.0244C1.5 7.20377 6.37336 1.5 13.8506 1.5Z" stroke="#472B0D" stroke-width="3"/>
<path d="M21.6659 24.7142L20.7772 23.5058L18.3604 25.2832L19.2491 26.4916L20.4575 25.6029L21.6659 24.7142ZM28.4452 35.8237C29.2021 36.1605 30.0887 35.82 30.4255 35.0631C30.7623 34.3062 30.4218 33.4196 29.6649 33.0828L29.0551 34.4533L28.4452 35.8237ZM20.4575 25.6029L19.2491 26.4916C20.8445 28.6609 22.8445 30.8415 24.5409 32.5203C25.3914 33.362 26.1783 34.0901 26.8148 34.6381C27.1321 34.9114 27.4221 35.1485 27.6703 35.3357C27.8834 35.4965 28.1686 35.7006 28.4452 35.8237L29.0551 34.4533L29.6649 33.0828C29.7343 33.1137 29.6914 33.1025 29.4768 32.9407C29.2973 32.8053 29.0601 32.6126 28.7723 32.3648C28.1984 31.8706 27.4628 31.1913 26.6511 30.3879C25.0228 28.7766 23.1384 26.7164 21.6659 24.7142L20.4575 25.6029Z" fill="#472B0D"/>
<path d="M7.87256 13.7498L13.1554 18.333" stroke="#472B0D" stroke-width="3" stroke-linecap="round"/>
</svg>
