<svg width="301" height="49" viewBox="0 0 301 49" fill="none" xmlns="http://www.w3.org/2000/svg">
<path d="M97.9221 19.6C97.5026 19.6 97.1277 19.3381 96.9832 18.9443L90.976 2.56062C90.6554 1.68629 89.4188 1.68629 89.0982 2.56062L83.091 18.9443C82.9466 19.3381 82.5717 19.6 82.1521 19.6H64.1196C63.1019 19.6 62.7346 20.943 63.6107 21.4608L78.0187 29.9782C78.4359 30.2249 78.6162 30.7352 78.4465 31.1891L72.8269 46.2253C72.4918 47.1218 73.4865 47.9316 74.2964 47.4216L89.5047 37.8448C89.8301 37.6399 90.2442 37.6397 90.5698 37.8444L105.809 47.4253C106.619 47.9345 107.613 47.1248 107.278 46.2286L101.657 31.1886C101.488 30.7349 101.668 30.2248 102.084 29.978L116.469 21.4605C117.345 20.9422 116.977 19.6 115.96 19.6H97.9221Z" fill="#DFA437"/>
<path d="M156.922 19.6C156.503 19.6 156.128 19.3381 155.983 18.9443L149.976 2.56062C149.655 1.68629 148.419 1.68629 148.098 2.56062L142.091 18.9443C141.947 19.3381 141.572 19.6 141.152 19.6H123.12C122.102 19.6 121.735 20.943 122.611 21.4608L137.019 29.9782C137.436 30.2249 137.616 30.7352 137.447 31.1891L131.827 46.2253C131.492 47.1218 132.487 47.9316 133.296 47.4216L148.505 37.8448C148.83 37.6399 149.244 37.6397 149.57 37.8444L164.809 47.4253C165.619 47.9345 166.613 47.1248 166.278 46.2286L160.657 31.1886C160.488 30.7349 160.668 30.2248 161.084 29.978L175.469 21.4605C176.345 20.9422 175.977 19.6 174.96 19.6H156.922Z" fill="#DFA437"/>
<path d="M218.848 19.6C218.428 19.6 218.053 19.3381 217.909 18.9443L211.902 2.56062C211.581 1.68629 210.345 1.68629 210.024 2.56062L204.017 18.9443C203.872 19.3381 203.497 19.6 203.078 19.6H185.045C184.028 19.6 183.66 20.943 184.536 21.4608L198.944 29.9782C199.362 30.2249 199.542 30.7352 199.372 31.1891L193.753 46.2253C193.418 47.1218 194.412 47.9316 195.222 47.4216L210.43 37.8448C210.756 37.6399 211.17 37.6397 211.496 37.8444L226.735 47.4253C227.545 47.9345 228.539 47.1248 228.204 46.2286L222.583 31.1886C222.413 30.7349 222.593 30.2248 223.01 29.978L237.395 21.4605C238.27 20.9422 237.903 19.6 236.886 19.6H218.848Z" fill="#DFA437"/>
<path d="M279.311 19.6C278.891 19.6 278.516 19.3381 278.372 18.9443L272.365 2.56062C272.044 1.68629 270.808 1.68629 270.487 2.56062L264.48 18.9443C264.335 19.3381 263.96 19.6 263.541 19.6H245.508C244.491 19.6 244.123 20.943 244.999 21.4608L259.407 29.9782C259.825 30.2249 260.005 30.7352 259.835 31.1891L254.216 46.2253C253.88 47.1218 254.875 47.9316 255.685 47.4216L270.893 37.8448C271.219 37.6399 271.633 37.6397 271.958 37.8444L287.198 47.4253C288.008 47.9345 289.002 47.1248 288.667 46.2286L283.046 31.1886C282.876 30.7349 283.056 30.2248 283.473 29.978L297.858 21.4605C298.733 20.9422 298.366 19.6 297.348 19.6H279.311Z" fill="#DFA437"/>
<path d="M37.4592 19.6C37.0397 19.6 36.6648 19.3381 36.5203 18.9443L30.5131 2.56062C30.1925 1.68629 28.9559 1.68629 28.6354 2.56062L22.6281 18.9443C22.4837 19.3381 22.1088 19.6 21.6893 19.6H3.65667C2.63901 19.6 2.27175 20.943 3.14778 21.4608L17.5558 29.9782C17.973 30.2249 18.1533 30.7352 17.9836 31.1891L12.364 46.2253C12.0289 47.1218 13.0236 47.9316 13.8335 47.4216L29.0418 37.8448C29.3672 37.6399 29.7813 37.6397 30.1069 37.8444L45.3464 47.4253C46.1564 47.9345 47.1503 47.1248 46.8153 46.2286L41.1942 31.1886C41.0246 30.7349 41.2046 30.2248 41.6214 29.978L56.0064 21.4605C56.8817 20.9422 56.5142 19.6 55.4969 19.6H37.4592Z" fill="#DFA437"/>
</svg>
