<svg width="63" height="64" viewBox="0 0 63 64" fill="none" xmlns="http://www.w3.org/2000/svg">
<path d="M31.5 0C48.897 0 63 14.3269 63 32C63 49.6731 48.897 64 31.5 64C14.103 64 0 49.6731 0 32C5.07355e-07 14.3269 14.103 0 31.5 0ZM46.9775 21.9336C47.5063 19.7793 46.1689 18.8024 44.7832 19.4414L14.4404 31.3271C12.3695 32.1711 12.382 33.3442 14.0635 33.8672L21.8496 36.3369L39.876 24.7832C40.727 24.259 41.5082 24.5412 40.8672 25.1191L26.2607 38.5098L25.7246 46.667C26.5121 46.667 26.8602 46.3003 27.2998 45.8662L31.084 42.1289L38.9551 48.0371C40.4036 48.849 41.4487 48.4286 41.8096 46.6709L46.9775 21.9336Z" fill="white"/>
</svg>
