<svg width="43" height="37" viewBox="0 0 43 37" fill="none" xmlns="http://www.w3.org/2000/svg">
<path d="M7.47266 25.3059H16.8062" stroke="#472B0D" stroke-width="3" stroke-linecap="round"/>
<path d="M7.42773 19.9592H21.0963" stroke="#472B0D" stroke-width="3" stroke-linecap="round"/>
<path d="M7.78223 10.0179H24.8126" stroke="#472B0D" stroke-width="3" stroke-linecap="round"/>
<path d="M4.55273 35.2848H28.2184" stroke="#472B0D" stroke-width="3" stroke-linecap="round"/>
<path d="M40.9144 8.81299L19.5928 29.1842" stroke="#472B0D" stroke-width="3" stroke-linecap="round"/>
<path d="M38.2612 6.02661C39.2856 6.02834 40.251 6.75065 40.9153 8.58761" stroke="#472B0D" stroke-width="3" stroke-linecap="round"/>
<path d="M35.8271 6.89286C37.4904 5.84519 38.2628 5.86854 39.4987 6.44092" stroke="#472B0D" stroke-width="3" stroke-linecap="round"/>
<path d="M1.98708 5.08484L1.50049 30.5018" stroke="#472B0D" stroke-width="3" stroke-linecap="round"/>
<path d="M4.10986 1.58285C5.02996 1.4328 21.8629 1.52033 30.1644 1.58285" stroke="#472B0D" stroke-width="3" stroke-linecap="round"/>
<path d="M30.2096 1.58325C31.5691 1.64671 31.9424 2.37689 31.979 4.85982M4.11082 1.58325C2.45964 1.75064 1.9132 2.49344 1.98753 5.61305" stroke="#472B0D" stroke-width="3" stroke-linecap="round"/>
<path d="M31.9776 4.29431L31.8907 9.64216" stroke="#472B0D" stroke-width="3" stroke-linecap="round"/>
<path d="M1.5004 30.578C1.48096 34.1938 2.16005 35.2722 4.59685 35.2857" stroke="#472B0D" stroke-width="3" stroke-linecap="round"/>
<path d="M23.8394 17.3228C24.901 16.1781 32.1704 10.1182 35.8272 6.89246" stroke="#472B0D" stroke-width="3" stroke-linecap="round"/>
<path d="M30.6519 18.7917V32.2343" stroke="#472B0D" stroke-width="3" stroke-linecap="round"/>
<path d="M30.6522 32.1971C30.7485 34.8718 29.9617 35.3545 27.4673 35.2854" stroke="#472B0D" stroke-width="3" stroke-linecap="round"/>
<path d="M7.69385 14.8752C8.36622 14.7252 18.3545 14.8127 23.2646 14.8752" stroke="#472B0D" stroke-width="3" stroke-linecap="round"/>
</svg>
