<svg width="60" height="559" viewBox="0 0 60 559" fill="none" xmlns="http://www.w3.org/2000/svg">
<path fill-rule="evenodd" clip-rule="evenodd" d="M5 10C7.76142 10 10 7.76142 10 5C10 2.23858 7.76142 0 5 0C2.23858 0 0 2.23858 0 5C0 7.76142 2.23858 10 5 10ZM5 60C7.76142 60 10 57.7614 10 55C10 52.2386 7.76142 50 5 50C2.23858 50 0 52.2386 0 55C0 57.7614 2.23858 60 5 60ZM10 105C10 107.761 7.76142 110 5 110C2.23858 110 0 107.761 0 105C0 102.239 2.23858 100 5 100C7.76142 100 10 102.239 10 105ZM5 160C7.76142 160 10 157.761 10 155C10 152.239 7.76142 150 5 150C2.23858 150 0 152.239 0 155C0 157.761 2.23858 160 5 160ZM10 205C10 207.761 7.76142 210 5 210C2.23858 210 0 207.761 0 205C0 202.239 2.23858 200 5 200C7.76142 200 10 202.239 10 205ZM5 260C7.76142 260 10 257.761 10 255C10 252.239 7.76142 250 5 250C2.23858 250 0 252.239 0 255C0 257.761 2.23858 260 5 260ZM60 5C60 7.76142 57.7614 10 55 10C52.2386 10 50 7.76142 50 5C50 2.23858 52.2386 0 55 0C57.7614 0 60 2.23858 60 5ZM55 60C57.7614 60 60 57.7614 60 55C60 52.2386 57.7614 50 55 50C52.2386 50 50 52.2386 50 55C50 57.7614 52.2386 60 55 60ZM60 105C60 107.761 57.7614 110 55 110C52.2386 110 50 107.761 50 105C50 102.239 52.2386 100 55 100C57.7614 100 60 102.239 60 105ZM55 160C57.7614 160 60 157.761 60 155C60 152.239 57.7614 150 55 150C52.2386 150 50 152.239 50 155C50 157.761 52.2386 160 55 160ZM60 205C60 207.761 57.7614 210 55 210C52.2386 210 50 207.761 50 205C50 202.239 52.2386 200 55 200C57.7614 200 60 202.239 60 205ZM55 260C57.7614 260 60 257.761 60 255C60 252.239 57.7614 250 55 250C52.2386 250 50 252.239 50 255C50 257.761 52.2386 260 55 260Z" fill="#E1D9CC"/>
<path fill-rule="evenodd" clip-rule="evenodd" d="M5 309C7.76142 309 10 306.761 10 304C10 301.239 7.76142 299 5 299C2.23858 299 0 301.239 0 304C0 306.761 2.23858 309 5 309ZM5 359C7.76142 359 10 356.761 10 354C10 351.239 7.76142 349 5 349C2.23858 349 0 351.239 0 354C0 356.761 2.23858 359 5 359ZM10 404C10 406.761 7.76142 409 5 409C2.23858 409 0 406.761 0 404C0 401.239 2.23858 399 5 399C7.76142 399 10 401.239 10 404ZM5 459C7.76142 459 10 456.761 10 454C10 451.239 7.76142 449 5 449C2.23858 449 0 451.239 0 454C0 456.761 2.23858 459 5 459ZM10 504C10 506.761 7.76142 509 5 509C2.23858 509 0 506.761 0 504C0 501.239 2.23858 499 5 499C7.76142 499 10 501.239 10 504ZM5 559C7.76142 559 10 556.761 10 554C10 551.239 7.76142 549 5 549C2.23858 549 0 551.239 0 554C0 556.761 2.23858 559 5 559ZM60 304C60 306.761 57.7614 309 55 309C52.2386 309 50 306.761 50 304C50 301.239 52.2386 299 55 299C57.7614 299 60 301.239 60 304ZM55 359C57.7614 359 60 356.761 60 354C60 351.239 57.7614 349 55 349C52.2386 349 50 351.239 50 354C50 356.761 52.2386 359 55 359ZM60 404C60 406.761 57.7614 409 55 409C52.2386 409 50 406.761 50 404C50 401.239 52.2386 399 55 399C57.7614 399 60 401.239 60 404ZM55 459C57.7614 459 60 456.761 60 454C60 451.239 57.7614 449 55 449C52.2386 449 50 451.239 50 454C50 456.761 52.2386 459 55 459ZM60 504C60 506.761 57.7614 509 55 509C52.2386 509 50 506.761 50 504C50 501.239 52.2386 499 55 499C57.7614 499 60 501.239 60 504ZM55 559C57.7614 559 60 556.761 60 554C60 551.239 57.7614 549 55 549C52.2386 549 50 551.239 50 554C50 556.761 52.2386 559 55 559Z" fill="#E1D9CC"/>
</svg>
