<svg width="65" height="66" viewBox="0 0 65 66" fill="none" xmlns="http://www.w3.org/2000/svg">
<path d="M32.5 0C50.4493 5.23338e-07 65 14.7746 65 33C65 51.2254 50.4493 66 32.5 66C14.5507 66 0 51.2254 0 33C0 14.7746 14.5507 0 32.5 0ZM31.8369 24.2041C29.9769 24.1855 28.4026 24.2112 27.5107 24.6455C26.9178 24.9345 26.4604 25.5794 26.7393 25.6172C27.0834 25.6628 27.8636 25.8267 28.2773 26.3877C28.8093 27.1097 28.7931 28.7251 28.793 28.7383C28.793 28.7383 29.1001 33.2199 28.0762 33.7764C27.3742 34.1583 26.4111 33.3786 24.3408 29.8145C23.2811 27.9894 22.4805 25.9717 22.4805 25.9717C22.4764 25.9617 22.3224 25.5927 22.0498 25.3926C21.7158 25.1475 21.249 25.0713 21.249 25.0713L16.2969 25.1035C16.2969 25.1035 15.5523 25.1235 15.2793 25.4463C15.0369 25.7319 15.2607 26.3252 15.2607 26.3252C15.2694 26.3454 19.1437 35.3731 23.5303 39.9258C27.5402 44.0856 32.0897 43.8323 32.1279 43.8301H34.2002C34.2057 43.8295 34.8274 43.7585 35.1465 43.417C35.4388 43.1033 35.4297 42.5126 35.4297 42.5098C35.4297 42.5098 35.3904 39.7401 36.6807 39.3311C37.9523 38.9288 39.5855 42.0097 41.3184 43.1943C42.6122 44.0795 43.5978 43.8978 43.6201 43.8936L48.251 43.8301C48.251 43.8301 50.6722 43.681 49.5244 41.7832C49.4295 41.6277 48.8543 40.3788 46.082 37.8135C43.1778 35.1284 43.5684 35.5625 47.0645 30.917C49.1941 28.088 50.0445 26.3606 49.7783 25.6221C49.528 24.9228 47.9901 25.1 47.96 25.1035L42.7471 25.1357C42.7361 25.1343 42.3566 25.0857 42.0742 25.2539C41.7945 25.4212 41.6133 25.8115 41.6133 25.8115C41.6085 25.8241 40.7857 28.0054 39.6885 29.8623C37.3677 33.7889 36.4405 33.9971 36.0605 33.7539C35.1772 33.1844 35.3974 31.4694 35.3975 30.251C35.3975 26.4435 35.9769 24.8569 34.2695 24.4463C33.7033 24.3094 33.2863 24.2193 31.8369 24.2041Z" fill="white"/>
</svg>
