<svg width="250" height="45" viewBox="0 0 250 45" fill="none" xmlns="http://www.w3.org/2000/svg">
<path d="M81.3115 18C80.8802 18 80.4976 17.7236 80.3621 17.3142L75.5815 2.86867C75.2789 1.95425 73.9854 1.95425 73.6828 2.86867L68.9021 17.3142C68.7666 17.7236 68.384 18 67.9528 18H53.4699C52.4762 18 52.0908 19.2921 52.922 19.8365L64.6209 27.4989C65.0018 27.7484 65.1661 28.2236 65.0206 28.6551L60.4774 42.1228C60.1691 43.0369 61.206 43.8146 61.9971 43.2626L74.0604 34.8464C74.4039 34.6067 74.8604 34.6065 75.2041 34.8459L87.2935 43.2667C88.0847 43.8178 89.1208 43.0402 88.8126 42.1265L84.268 28.6545C84.1225 28.2233 84.2865 27.7483 84.667 27.4987L96.3474 19.8361C97.1779 19.2913 96.7921 18 95.7989 18H81.3115Z" fill="#444E5A"/>
<path d="M131.429 18C130.998 18 130.616 17.7236 130.48 17.3142L125.699 2.86867C125.397 1.95425 124.103 1.95425 123.801 2.86867L119.02 17.3142C118.885 17.7236 118.502 18 118.071 18H103.588C102.594 18 102.209 19.2921 103.04 19.8365L114.739 27.4989C115.12 27.7484 115.284 28.2236 115.138 28.6551L110.595 42.1228C110.287 43.0369 111.324 43.8146 112.115 43.2626L124.178 34.8464C124.522 34.6067 124.978 34.6065 125.322 34.8459L137.411 43.2667C138.203 43.8178 139.239 43.0402 138.93 42.1265L134.386 28.6545C134.24 28.2233 134.404 27.7483 134.785 27.4987L146.465 19.8361C147.296 19.2913 146.91 18 145.917 18H131.429Z" fill="#444E5A"/>
<path d="M181.547 18C181.116 18 180.733 17.7236 180.598 17.3142L175.817 2.86867C175.515 1.95425 174.221 1.95425 173.919 2.86867L169.138 17.3142C169.002 17.7236 168.62 18 168.189 18H153.706C152.712 18 152.327 19.2921 153.158 19.8365L164.857 27.4989C165.238 27.7484 165.402 28.2236 165.256 28.6551L160.713 42.1228C160.405 43.0369 161.442 43.8146 162.233 43.2626L174.296 34.8464C174.64 34.6067 175.096 34.6065 175.44 34.8459L187.529 43.2667C188.32 43.8178 189.357 43.0402 189.048 42.1265L184.504 28.6545C184.358 28.2233 184.522 27.7483 184.903 27.4987L196.583 19.8361C197.414 19.2913 197.028 18 196.035 18H181.547Z" fill="#444E5A"/>
<path d="M231.665 18C231.234 18 230.851 17.7236 230.716 17.3142L225.935 2.86867C225.633 1.95425 224.339 1.95425 224.036 2.86867L219.256 17.3142C219.12 17.7236 218.738 18 218.306 18H203.824C202.83 18 202.444 19.2921 203.276 19.8365L214.975 27.4989C215.356 27.7484 215.52 28.2236 215.374 28.6551L210.831 42.1228C210.523 43.0369 211.56 43.8146 212.351 43.2626L224.414 34.8464C224.758 34.6067 225.214 34.6065 225.558 34.8459L237.647 43.2667C238.438 43.8178 239.474 43.0402 239.166 42.1265L234.622 28.6545C234.476 28.2233 234.64 27.7483 235.021 27.4987L246.701 19.8361C247.532 19.2913 247.146 18 246.153 18H231.665Z" fill="#444E5A"/>
<path d="M31.1935 18C30.7623 18 30.3797 17.7236 30.2442 17.3142L25.4636 2.86867C25.1609 1.95425 23.8675 1.95425 23.5648 2.86867L18.7842 17.3142C18.6487 17.7236 18.2661 18 17.8348 18H3.35195C2.35833 18 1.97284 19.2921 2.80405 19.8365L14.503 27.4989C14.8839 27.7484 15.0482 28.2236 14.9026 28.6551L10.3595 42.1228C10.0512 43.0369 11.0881 43.8146 11.8792 43.2626L23.9425 34.8464C24.286 34.6067 24.7425 34.6065 25.0862 34.8459L37.1755 43.2667C37.9668 43.8178 39.0029 43.0402 38.6946 42.1265L34.1501 28.6545C34.0046 28.2233 34.1686 27.7483 34.5491 27.4987L46.2295 19.8361C47.06 19.2913 46.6742 18 45.681 18H31.1935Z" fill="#444E5A"/>
</svg>
