<svg width="129" height="24" viewBox="0 0 129 24" fill="none" xmlns="http://www.w3.org/2000/svg">
<path d="M42.3927 9.43226C41.96 9.43226 41.5764 9.15398 41.4421 8.74267L39.5379 2.9112C39.2377 1.99174 37.937 1.99174 37.6367 2.91121L35.7326 8.74267C35.5983 9.15398 35.2146 9.43226 34.782 9.43226H29.2273C28.2369 9.43226 27.8491 10.7177 28.6742 11.2654L33.1082 14.2087C33.4844 14.4584 33.6466 14.9292 33.504 15.3577L31.7297 20.6886C31.4247 21.6049 32.4672 22.3785 33.2558 21.8209L38.0105 18.4589C38.3562 18.2144 38.8185 18.2142 39.1645 18.4585L43.9334 21.825C44.7221 22.3818 45.7638 21.6083 45.4589 20.6923L43.6831 15.3571C43.5406 14.9289 43.7025 14.4584 44.0783 14.2086L48.5055 11.265C49.33 10.7168 48.9419 9.43226 47.9518 9.43226H42.3927Z" fill="#DFA437"/>
<path d="M68.3054 9.43226C67.8727 9.43226 67.4891 9.15398 67.3548 8.74267L65.4506 2.9112C65.1504 1.99174 63.8496 1.99174 63.5494 2.91121L61.6452 8.74267C61.5109 9.15398 61.1273 9.43226 60.6946 9.43226H55.14C54.1495 9.43226 53.7617 10.7177 54.5869 11.2654L59.0209 14.2087C59.3971 14.4584 59.5593 14.9292 59.4167 15.3577L57.6423 20.6886C57.3373 21.6049 58.3799 22.3785 59.1685 21.8209L63.9231 18.4589C64.2689 18.2144 64.7312 18.2142 65.0772 18.4585L69.846 21.825C70.6347 22.3818 71.6765 21.6083 71.3716 20.6923L69.5958 15.3571C69.4533 14.9289 69.6152 14.4584 69.991 14.2086L74.4182 11.265C75.2426 10.7168 74.8545 9.43226 73.8645 9.43226H68.3054Z" fill="#DFA437"/>
<path d="M94.218 9.43226C93.7853 9.43226 93.4017 9.15398 93.2674 8.74267L91.3633 2.9112C91.063 1.99174 89.7623 1.99174 89.462 2.91121L87.5579 8.74267C87.4236 9.15398 87.04 9.43226 86.6073 9.43226H81.0526C80.0622 9.43226 79.6744 10.7177 80.4996 11.2654L84.9336 14.2087C85.3097 14.4584 85.4719 14.9292 85.3293 15.3577L83.555 20.6886C83.25 21.6049 84.2926 22.3785 85.0812 21.8209L89.8358 18.4589C90.1816 18.2144 90.6439 18.2142 90.9898 18.4585L95.7587 21.825C96.5474 22.3818 97.5891 21.6083 97.2842 20.6923L95.5085 15.3571C95.366 14.9289 95.5278 14.4584 95.9036 14.2086L100.331 11.265C101.155 10.7168 100.767 9.43226 99.7772 9.43226H94.218Z" fill="#DFA437"/>
<path d="M120.131 9.43226C119.698 9.43226 119.314 9.15398 119.18 8.74267L117.276 2.9112C116.976 1.99174 115.675 1.99174 115.375 2.91121L113.471 8.74267C113.336 9.15398 112.953 9.43226 112.52 9.43226H106.965C105.975 9.43226 105.587 10.7177 106.412 11.2654L110.846 14.2087C111.222 14.4584 111.385 14.9292 111.242 15.3577L109.468 20.6886C109.163 21.6049 110.205 22.3785 110.994 21.8209L115.748 18.4589C116.094 18.2144 116.557 18.2142 116.903 18.4585L121.671 21.825C122.46 22.3818 123.502 21.6083 123.197 20.6923L121.421 15.3571C121.279 14.9289 121.441 14.4584 121.816 14.2086L126.244 11.265C127.068 10.7168 126.68 9.43226 125.69 9.43226H120.131Z" fill="#DFA437"/>
<path d="M16.48 9.43226C16.0474 9.43226 15.6638 9.15398 15.5294 8.74267L13.6253 2.9112C13.325 1.99174 12.0243 1.99174 11.7241 2.91121L9.8199 8.74267C9.68559 9.15398 9.30199 9.43226 8.8693 9.43226H3.31463C2.3242 9.43226 1.93641 10.7177 2.76159 11.2654L7.19557 14.2087C7.57176 14.4584 7.73394 14.9292 7.59135 15.3577L5.81701 20.6886C5.512 21.6049 6.55458 22.3785 7.34318 21.8209L12.0978 18.4589C12.4436 18.2144 12.9059 18.2142 13.2519 18.4585L18.0207 21.825C18.8094 22.3818 19.8511 21.6083 19.5462 20.6923L17.7705 15.3571C17.628 14.9289 17.7899 14.4584 18.1656 14.2086L22.5928 11.265C23.4173 10.7168 23.0292 9.43226 22.0392 9.43226H16.48Z" fill="#DFA437"/>
</svg>
