<svg width="31" height="34" viewBox="0 0 31 34" fill="none" xmlns="http://www.w3.org/2000/svg">
<path d="M3.98183 26.8997C3.81661 28.2996 2.44321 28.5084 1.26398 29.0131C0.0847548 29.5177 3.20047 32.0974 3.20047 32.0974C6.18777 33.3661 9.47702 31.7489 9.53945 31.6702C9.60188 31.5915 12.956 28.4121 13.0367 25.1857C13.0413 24.7843 13.0248 24.4059 12.9857 24.0498M3.98374 26.8563C3.85571 25.1749 4.18145 23.7535 5.10622 21.3618C6.52702 18.9635 9.22188 19.5872 10.2502 20.0689M12.4109 15.0783C14.9367 16.1391 16.4184 17.3959 17.3264 21.0985M17.3264 21.0985C22.4397 15.3544 29.1517 4.93638 29.2328 4.0312C29.314 3.12602 28.8145 0.678121 27.1024 1.03873C20.1862 6.18836 17.2343 9.56094 12.4109 15.0783C11.1229 16.7496 10.6342 17.8329 10.2502 20.0689M17.3264 21.0985C15.866 22.9073 14.9396 23.6204 12.9857 24.0498M10.2502 20.0689C10.4361 20.156 10.5675 20.2385 10.6271 20.2976C12.0587 21.0856 12.7938 22.3 12.9857 24.0498" stroke="#472B0D" stroke-width="2" stroke-linecap="round"/>
</svg>
